<?xml version="1.0" standalone="no"?>
<!DOCTYPE svg PUBLIC "-//W3C//DTD SVG 20010904//EN"
 "http://www.w3.org/TR/2001/REC-SVG-20010904/DTD/svg10.dtd">
<svg version="1.0" xmlns="http://www.w3.org/2000/svg"
 width="64.000000pt" height="64.000000pt" viewBox="0 0 64.000000 64.000000"
 preserveAspectRatio="xMidYMid meet">

<g transform="translate(0.000000,64.000000) scale(0.100000,-0.100000)"
fill="#000000" stroke="none">
<path d="M210 633 c-8 -4 -27 -18 -41 -32 -14 -14 -53 -41 -86 -60 l-61 -33
48 -63 47 -63 -13 -73 c-7 -41 -13 -90 -13 -110 l-1 -37 63 -10 c34 -6 81 -14
105 -17 38 -6 49 -14 89 -66 26 -32 50 -59 54 -59 4 0 35 25 67 55 33 30 66
55 74 55 14 0 39 46 53 97 5 17 0 25 -24 37 -17 9 -32 16 -36 16 -3 0 -5 -29
-5 -65 0 -36 -4 -65 -8 -65 -5 0 -16 17 -26 37 -10 21 -24 48 -32 61 l-15 23
-66 -61 c-36 -33 -69 -60 -73 -60 -3 0 -1 33 6 72 7 40 13 85 14 101 0 16 6
27 14 27 19 0 76 -21 76 -28 0 -4 7 -16 15 -26 12 -16 17 -17 30 -6 8 7 25 10
40 6 24 -6 25 -4 25 33 0 74 30 64 52 -16 7 -24 16 -43 21 -43 11 0 2 84 -14
130 -10 28 -12 29 -24 13 -16 -21 -20 -18 -40 30 -16 38 -8 49 15 22 7 -8 17
-15 22 -15 12 0 -21 56 -50 83 l-23 22 11 -29 c15 -41 5 -44 -30 -11 -36 34
-38 45 -7 45 22 1 22 1 2 16 -25 20 -125 67 -130 62 -3 -2 18 -21 46 -42 35
-26 48 -41 41 -48 -7 -7 -21 -7 -43 1 -45 15 -49 14 -49 -13 0 -16 -7 -27 -21
-31 -16 -5 -32 3 -67 36 -26 24 -49 45 -51 47 -2 1 -2 4 0 6 4 5 71 -8 112
-20 22 -7 24 38 1 60 -15 16 -65 20 -94 9z m105 -185 c21 -25 25 -38 21 -62
-4 -16 -8 -31 -10 -34 -3 -2 -48 4 -101 13 -53 10 -93 21 -88 26 11 11 137 88
145 88 3 1 18 -13 33 -31z"/>
</g>
</svg>
