<?xml version="1.0" standalone="no"?>
<!DOCTYPE svg PUBLIC "-//W3C//DTD SVG 20010904//EN"
 "http://www.w3.org/TR/2001/REC-SVG-20010904/DTD/svg10.dtd">
<svg version="1.0" xmlns="http://www.w3.org/2000/svg"
 width="80.000000pt" height="80.000000pt" viewBox="0 0 80.000000 80.000000"
 preserveAspectRatio="xMidYMid meet">

<g transform="translate(0.000000,80.000000) scale(0.100000,-0.100000)"
fill="#000000" stroke="none">
<path d="M267 793 c-4 -3 -7 -62 -7 -129 l0 -123 -27 -3 c-16 -2 -28 -7 -28
-13 0 -5 12 -11 28 -13 l27 -3 0 -240 0 -239 -25 0 c-16 0 -25 -6 -25 -15 0
-13 25 -15 187 -13 138 2 187 6 191 16 2 8 -8 12 -33 12 -37 0 -37 0 -31 33
21 111 0 322 -40 398 -16 32 -6 59 22 59 8 0 14 5 14 10 0 6 -17 10 -37 10
-34 0 -41 6 -71 50 -19 27 -54 68 -78 90 -38 35 -44 46 -44 80 0 38 -8 49 -23
33z m60 -125 c147 -137 219 -363 185 -588 -6 -37 -11 -46 -30 -48 -22 -3 -22
-2 -16 67 l7 71 -77 0 -76 0 0 -71 c0 -67 -1 -70 -22 -67 l-23 3 -3 233 c-2
200 0 233 13 238 19 8 19 30 0 38 -12 4 -15 24 -15 86 0 44 2 80 5 80 3 0 26
-19 52 -42z m128 -555 c-12 -84 -11 -83 -71 -83 l-54 0 0 65 0 65 66 0 65 0
-6 -47z"/>
<path d="M321 415 l0 -235 74 0 75 0 0 68 c0 38 -3 71 -6 75 -3 3 -7 25 -9 49
-1 24 -11 61 -20 83 -10 22 -17 44 -16 48 3 16 -79 147 -92 147 -4 0 -6 -106
-6 -235z m39 173 c26 -43 25 -48 -5 -48 -22 0 -25 4 -25 40 0 22 2 40 5 40 3
0 14 -15 25 -32z m-10 -68 c0 -5 -4 -10 -10 -10 -5 0 -10 5 -10 10 0 6 5 10
10 10 6 0 10 -4 10 -10z m45 0 c3 -5 1 -10 -4 -10 -6 0 -11 5 -11 10 0 6 2 10
4 10 3 0 8 -4 11 -10z m35 -92 c6 -24 13 -51 16 -60 5 -16 -2 -18 -55 -18
l-61 0 0 60 0 60 45 0 c44 0 44 0 55 -42z m24 -124 c3 -9 6 -38 6 -65 l0 -49
-65 0 -65 0 0 65 0 65 59 0 c44 0 60 -4 65 -16z"/>
<path d="M363 443 c9 -2 25 -2 35 0 9 3 1 5 -18 5 -19 0 -27 -2 -17 -5z"/>
<path d="M350 410 c0 -5 16 -10 35 -10 19 0 35 5 35 10 0 6 -16 10 -35 10 -19
0 -35 -4 -35 -10z"/>
<path d="M350 380 c0 -5 18 -10 41 -10 24 0 38 4 34 10 -3 6 -22 10 -41 10
-19 0 -34 -4 -34 -10z"/>
<path d="M373 283 c15 -2 37 -2 50 0 12 2 0 4 -28 4 -27 0 -38 -2 -22 -4z"/>
<path d="M373 253 c15 -2 37 -2 50 0 12 2 0 4 -28 4 -27 0 -38 -2 -22 -4z"/>
<path d="M350 220 c0 -5 20 -10 45 -10 25 0 45 5 45 10 0 6 -20 10 -45 10 -25
0 -45 -4 -45 -10z"/>
<path d="M350 130 c0 -5 20 -10 45 -10 25 0 45 5 45 10 0 6 -20 10 -45 10 -25
0 -45 -4 -45 -10z"/>
<path d="M373 93 c15 -2 37 -2 50 0 12 2 0 4 -28 4 -27 0 -38 -2 -22 -4z"/>
<path d="M368 63 c12 -2 32 -2 45 0 12 2 2 4 -23 4 -25 0 -35 -2 -22 -4z"/>
</g>
</svg>
