<?xml version="1.0" encoding="UTF-8"?> <svg xmlns="http://www.w3.org/2000/svg" xmlns:xlink="http://www.w3.org/1999/xlink" width="100" zoomAndPan="magnify" viewBox="0 0 75 74.999997" height="100" preserveAspectRatio="xMidYMid meet" version="1.0"><defs><clipPath id="c7b5bd7b25"><path d="M 0 9.066406 L 74 9.066406 L 74 69.066406 L 0 69.066406 Z M 0 9.066406 " clip-rule="nonzero"></path></clipPath></defs><g clip-path="url(#c7b5bd7b25)"><path fill="#000000" d="M 73.1875 13.570312 C 74.558594 15.941406 74.972656 19.496094 57.511719 29.574219 C 57.015625 29.863281 56.507812 30.152344 55.996094 30.445312 L 47.957031 65.738281 L 42.175781 69.078125 L 41.535156 38.152344 C 32.164062 42.875 27.984375 44.089844 21.867188 46.136719 L 19.273438 61.109375 L 14.140625 64.074219 L 12.652344 48.640625 L 0.03125 39.632812 L 5.164062 36.671875 L 19.222656 41.832031 C 24.019531 37.570312 27.179688 34.535156 35.988281 28.753906 L 9.710938 12.851562 L 15.492188 9.511719 L 49.824219 20.125 C 50.390625 19.789062 50.945312 19.46875 51.492188 19.148438 C 68.953125 9.070312 71.824219 11.207031 73.1875 13.570312 Z M 73.1875 13.570312 " fill-opacity="1" fill-rule="evenodd"></path></g></svg> 