<?xml version="1.0" encoding="UTF-8"?> <svg xmlns="http://www.w3.org/2000/svg" xmlns:xlink="http://www.w3.org/1999/xlink" width="100" zoomAndPan="magnify" viewBox="0 0 75 74.999997" height="100" preserveAspectRatio="xMidYMid meet" version="1.0"><defs><clipPath id="e0793e7390"><path d="M 1.820312 2 L 73.070312 2 L 73.070312 70 L 1.820312 70 Z M 1.820312 2 " clip-rule="nonzero"></path></clipPath></defs><g clip-path="url(#e0793e7390)"><path fill="#000000" d="M 71.945312 24.710938 C 68.085938 10.496094 56.40625 2.007812 40.703125 2.007812 L 1.820312 2.007812 L 2.589844 3.765625 C 5.882812 11.320312 13.339844 16.203125 21.582031 16.203125 L 32.257812 16.203125 C 32.660156 16.171875 34.148438 16.082031 36.378906 16.082031 C 38.523438 16.082031 40.707031 16.167969 42.867188 16.332031 L 43.078125 16.347656 C 51.339844 17 62.65625 19.160156 69.648438 25.742188 L 69.738281 25.828125 C 69.777344 25.863281 69.8125 25.894531 69.847656 25.929688 L 73.175781 29.246094 Z M 73.011719 41.09375 L 73.003906 41.230469 C 70.902344 58.945312 58.394531 69.945312 40.359375 69.945312 L 15.550781 69.945312 L 15.550781 36.410156 L 16.808594 36.410156 C 24.070312 36.410156 29.976562 42.320312 29.976562 49.582031 L 29.976562 55.519531 L 40.964844 55.519531 C 46.375 55.519531 50.929688 53.742188 54.140625 50.378906 C 57.410156 46.957031 59.136719 42.011719 59.136719 36.078125 L 59.136719 35.875 C 59.136719 31.28125 58.125 27.320312 56.132812 24.097656 L 54.273438 21.089844 L 57.613281 22.25 C 61.757812 23.6875 65.117188 25.601562 67.601562 27.945312 C 71.234375 31.363281 73.054688 35.789062 73.011719 41.09375 " fill-opacity="1" fill-rule="nonzero"></path></g></svg> 