<?xml version="1.0" encoding="UTF-8"?>
<svg xmlns="http://www.w3.org/2000/svg" xmlns:xlink="http://www.w3.org/1999/xlink" width="100px" height="36px" viewBox="0 0 100 36" version="1.1">
<g id="surface1">
<path style=" stroke:none;fill-rule:nonzero;fill:rgb(100%,100%,100%);fill-opacity:1;" d="M 72.179688 4.328125 L 68.234375 4.328125 C 67.074219 4.328125 66.089844 4.570312 65.28125 5.042969 C 64.46875 5.515625 63.878906 6.183594 63.523438 7.035156 C 63.292969 7.574219 63.234375 8.078125 63.332031 8.511719 C 63.445312 8.972656 63.738281 9.3125 64.199219 9.515625 C 64.625 9.695312 65.339844 9.792969 66.332031 9.792969 L 69.875 9.792969 L 70.230469 8.925781 L 68.234375 8.925781 C 67.269531 8.925781 66.632812 8.800781 66.316406 8.558594 C 65.96875 8.289062 66.007812 7.671875 66.277344 7.011719 C 66.75 5.875 67.746094 5.167969 69.125 5.167969 L 70.667969 5.167969 L 70.3125 6.027344 L 71.488281 6.027344 L 72.191406 4.335938 L 72.183594 4.328125 Z M 58.390625 7.613281 L 60.773438 5.296875 L 61.265625 7.613281 Z M 38.125 7.625 L 40.449219 5.402344 L 40.867188 7.625 Z M 60.570312 4.328125 L 59.113281 4.328125 L 53.527344 9.5625 L 55.71875 4.339844 L 53.324219 4.339844 L 50.429688 6.609375 L 48.941406 7.835938 L 48.875 7.835938 L 49.578125 6.050781 L 48.71875 4.339844 L 46.316406 4.339844 L 44.125 9.574219 L 42.871094 4.339844 L 40.234375 4.339844 L 34.414062 9.796875 L 35.875 9.796875 L 37.359375 8.367188 L 41.027344 8.367188 L 41.316406 9.796875 L 45.214844 9.796875 L 46.621094 6.425781 C 46.691406 6.253906 46.757812 6.058594 46.824219 5.847656 C 46.824219 6.023438 46.882812 6.214844 46.972656 6.40625 L 48.207031 9.21875 L 48.417969 9.21875 L 51.960938 6.417969 C 52.09375 6.308594 52.296875 6.117188 52.558594 5.847656 C 52.421875 6.097656 52.324219 6.289062 52.269531 6.425781 L 50.859375 9.796875 L 56.148438 9.796875 L 57.613281 8.355469 L 61.425781 8.355469 L 61.734375 9.796875 L 63.074219 9.796875 L 61.761719 4.328125 L 60.566406 4.328125 Z M 36.101562 7.035156 C 36.457031 6.183594 36.429688 5.515625 36.003906 5.042969 C 35.585938 4.570312 34.796875 4.339844 33.640625 4.339844 L 29.722656 4.339844 L 29.363281 5.1875 L 32.054688 5.1875 C 33.425781 5.1875 33.832031 5.875 33.359375 7.011719 C 33.089844 7.671875 32.835938 8.277344 32.269531 8.539062 C 31.746094 8.789062 31.207031 8.855469 30.242188 8.855469 L 28.996094 8.855469 L 29.933594 6.644531 L 28.753906 6.644531 L 27.433594 9.792969 L 30.984375 9.792969 C 31.976562 9.792969 32.757812 9.695312 33.335938 9.511719 C 33.972656 9.308594 34.542969 8.96875 35.046875 8.507812 C 35.507812 8.0625 35.855469 7.570312 36.085938 7.03125 "/>
<path style=" stroke:none;fill-rule:nonzero;fill:rgb(100%,100%,100%);fill-opacity:1;" d="M 4.3125 18.070312 L 6.765625 18.070312 L 6.765625 31.292969 L 4.3125 31.292969 C 4.3125 31.292969 4.3125 18.070312 4.3125 18.070312 Z M 4.3125 18.070312 "/>
<path style=" stroke:none;fill-rule:nonzero;fill:rgb(100%,100%,100%);fill-opacity:1;" d="M 11.300781 29.691406 L 11.300781 25.535156 L 11.375 25.535156 C 12.300781 27.59375 15.585938 31.300781 18.496094 31.300781 C 19.914062 31.300781 20.910156 30.511719 20.910156 29.304688 C 20.910156 24.695312 11.570312 24.78125 11.570312 20.890625 C 11.570312 18.265625 14.308594 17.695312 16.855469 17.695312 C 19.800781 17.695312 21.277344 18.449219 22.328125 19.257812 L 22.328125 22.320312 L 22.25 22.320312 C 20.609375 19.730469 18.738281 18.070312 16.230469 18.070312 C 15.0625 18.070312 13.527344 18.621094 13.527344 19.675781 C 13.527344 22.601562 22.851562 22.890625 22.851562 27.660156 C 22.851562 30.441406 20.792969 31.667969 17.523438 31.667969 C 14.714844 31.667969 12.195312 30.480469 11.289062 29.6875 L 11.300781 29.6875 Z M 11.300781 29.691406 "/>
<path style=" stroke:none;fill-rule:nonzero;fill:rgb(100%,100%,100%);fill-opacity:1;" d="M 29.644531 18.070312 L 29.644531 29.746094 C 29.644531 30.375 29.433594 30.617188 29.191406 30.734375 L 35.648438 30.734375 L 35.648438 31.304688 L 27.195312 31.304688 L 27.195312 18.082031 L 29.644531 18.082031 Z M 29.644531 18.070312 "/>
<path style=" stroke:none;fill-rule:nonzero;fill:rgb(100%,100%,100%);fill-opacity:1;" d="M 43.769531 18.070312 L 46.316406 18.070312 L 50.921875 31.292969 L 48.46875 31.292969 L 48.265625 30.683594 C 47.320312 27.941406 45.417969 26.097656 42.261719 26.097656 L 41.585938 26.097656 L 39.773438 31.292969 L 39.167969 31.292969 C 39.167969 31.292969 43.769531 18.074219 43.769531 18.074219 Z M 42.265625 25.539062 C 44.699219 25.539062 46.019531 26.425781 47.613281 27.933594 C 47.273438 27.460938 46.878906 26.746094 46.609375 25.972656 L 44.261719 19.214844 C 44.167969 18.953125 44.089844 18.839844 43.886719 18.796875 C 44.023438 18.953125 43.964844 19.292969 43.867188 19.570312 L 41.773438 25.539062 C 41.773438 25.539062 42.265625 25.539062 42.265625 25.539062 Z M 42.265625 25.539062 "/>
<path style=" stroke:none;fill-rule:nonzero;fill:rgb(100%,100%,100%);fill-opacity:1;" d="M 57.339844 18.070312 L 63.640625 30.066406 L 63.640625 18.070312 L 64.210938 18.070312 L 64.210938 31.292969 L 61.738281 31.292969 L 55.71875 19.847656 C 55.527344 19.511719 55.382812 19.375 55.226562 19.320312 C 55.359375 19.453125 55.4375 19.65625 55.4375 19.910156 L 55.4375 31.304688 L 54.867188 31.304688 L 54.867188 18.226562 L 54.792969 18.074219 C 54.792969 18.074219 57.339844 18.074219 57.339844 18.074219 Z M 57.339844 18.070312 "/>
<path style=" stroke:none;fill-rule:nonzero;fill:rgb(100%,100%,100%);fill-opacity:1;" d="M 68.929688 18.070312 L 75.105469 18.070312 C 78.421875 18.070312 80.082031 20.523438 80.082031 24.457031 C 80.082031 28.6875 78.269531 31.292969 74.96875 31.292969 L 68.925781 31.292969 L 68.925781 18.070312 Z M 71.378906 19.628906 L 71.378906 30.734375 L 73.867188 30.734375 C 76.414062 30.734375 77.4375 27.804688 77.4375 24.40625 C 77.4375 21.367188 76.570312 18.640625 73.964844 18.640625 L 70.925781 18.640625 C 71.167969 18.757812 71.378906 19 71.378906 19.628906 Z M 71.378906 19.628906 "/>
<path style=" stroke:none;fill-rule:nonzero;fill:rgb(100%,100%,100%);fill-opacity:1;" d="M 84.136719 29.691406 L 84.136719 25.535156 L 84.210938 25.535156 C 85.136719 27.59375 88.421875 31.300781 91.332031 31.300781 C 92.75 31.300781 93.746094 30.511719 93.746094 29.304688 C 93.746094 24.695312 84.40625 24.78125 84.40625 20.890625 C 84.40625 18.265625 87.144531 17.695312 89.691406 17.695312 C 92.636719 17.695312 94.113281 18.449219 95.164062 19.257812 L 95.164062 22.320312 L 95.085938 22.320312 C 93.445312 19.730469 91.574219 18.070312 89.066406 18.070312 C 87.898438 18.070312 86.363281 18.621094 86.363281 19.675781 C 86.363281 22.601562 95.6875 22.890625 95.6875 27.660156 C 95.6875 30.441406 93.628906 31.667969 90.359375 31.667969 C 87.550781 31.667969 85.03125 30.480469 84.125 29.6875 L 84.136719 29.6875 Z M 84.136719 29.691406 "/>
</g>
</svg>
